<svg width="139" height="128" viewBox="0 0 139 128" fill="none" xmlns="http://www.w3.org/2000/svg">
    <g filter="url(#filter0_d_74_4318)">
        <path d="M108.228 21.2056C113.415 32.5562 113.53 43.219 119.063 53.5377C124.711 63.9712 135.66 74.1753 134.969 81.9717C134.277 89.7681 121.944 95.0422 111.225 102.38C100.621 109.603 91.631 118.89 82.0644 119.922C72.4979 120.839 62.1245 113.501 48.5238 107.081C34.9231 100.775 18.0952 95.3861 9.79645 84.0355C1.49774 72.6848 1.84351 55.1429 12.5627 46.8879C23.2819 38.5182 44.4897 39.4354 57.8598 30.6071C71.3453 21.8935 76.993 3.54898 84.9459 0.453343C92.8989 -2.52764 103.042 9.74025 108.228 21.2056Z" fill="white"/>
    </g>
    <path d="M102.316 27.0247C106.711 36.6728 106.808 45.7361 111.496 54.5071C116.281 63.3755 125.559 72.049 124.974 78.676C124.388 85.3029 113.938 89.7859 104.855 96.023C95.8699 102.163 88.2522 110.057 80.1462 110.934C72.0402 111.713 63.2505 105.476 51.7263 100.019C40.202 94.6586 25.9432 90.0782 18.9115 80.4302C11.8798 70.7821 12.1727 55.8715 21.2554 48.8547C30.3381 41.7405 48.3081 42.5201 59.637 35.0161C71.0635 27.6095 75.849 12.0166 82.5878 9.38534C89.3265 6.85151 97.9209 17.2792 102.316 27.0247Z" fill="#67B69E"/>
    <defs>
        <filter id="filter0_d_74_4318" x="0" y="0" width="139" height="128" filterUnits="userSpaceOnUse" color-interpolation-filters="sRGB">
            <feFlood flood-opacity="0" result="BackgroundImageFix"/>
            <feColorMatrix in="SourceAlpha" type="matrix" values="0 0 0 0 0 0 0 0 0 0 0 0 0 0 0 0 0 0 127 0" result="hardAlpha"/>
            <feOffset dy="4"/>
            <feGaussianBlur stdDeviation="2"/>
            <feComposite in2="hardAlpha" operator="out"/>
            <feColorMatrix type="matrix" values="0 0 0 0 0 0 0 0 0 0 0 0 0 0 0 0 0 0 0.25 0"/>
            <feBlend mode="normal" in2="BackgroundImageFix" result="effect1_dropShadow_74_4318"/>
            <feBlend mode="normal" in="SourceGraphic" in2="effect1_dropShadow_74_4318" result="shape"/>
        </filter>
    </defs>
    <svg x="50" y ="45" width="39" height="44" viewBox="0 0 39 44" fill="none" xmlns="http://www.w3.org/2000/svg">
        <g clip-path="url(#clip0_74_4322)">
            <path d="M39 30.25V4.125C39 1.85023 37.1283 0 34.8214 0H6.96429C3.12435 0 0 3.08344 0 6.875V37.125C0 40.9148 3.12435 44 6.96429 44H36.9107C38.0642 44 39 43.0762 39 41.9375C39 40.7988 38.0642 39.875 36.9107 39.875H36.2143V34.1215C37.8335 33.55 39 32.0375 39 30.25ZM32.0357 39.875H6.96429C5.42866 39.875 4.17857 38.6427 4.17857 37.125C4.17857 35.6073 5.42866 34.375 6.96429 34.375H32.0357V39.875ZM34.8214 30.25H6.96429C5.97362 30.25 5.0317 30.4541 4.17857 30.8247V6.875C4.17857 5.35734 5.42866 4.125 6.96429 4.125H34.8214V30.25ZM13.2321 13.75H28.5536C29.7114 13.75 30.6429 12.8305 30.6429 11.6875C30.6429 10.5445 29.7114 9.625 28.5536 9.625H13.2321C12.083 9.625 11.1429 10.5531 11.1429 11.6875C11.1429 12.8219 12.083 13.75 13.2321 13.75ZM13.2321 20.625H28.5536C29.7114 20.625 30.6429 19.7055 30.6429 18.5625C30.6429 17.4195 29.7114 16.5 28.5536 16.5H13.2321C12.083 16.5 11.1429 17.4281 11.1429 18.5625C11.1429 19.6969 12.083 20.625 13.2321 20.625Z" fill="#4D3A59"/>
        </g>
        <defs>
            <clipPath id="clip0_74_4322">
                <rect width="39" height="44" fill="white"/>
            </clipPath>
        </defs>
    </svg>

</svg>
