<svg width="139" height="128" viewBox="0 0 139 128" fill="none" xmlns="http://www.w3.org/2000/svg">
    <g filter="url(#filter0_d_74_4318)">
        <path d="M108.228 21.2056C113.415 32.5562 113.53 43.219 119.063 53.5377C124.711 63.9712 135.66 74.1753 134.969 81.9717C134.277 89.7681 121.944 95.0422 111.225 102.38C100.621 109.603 91.631 118.89 82.0644 119.922C72.4979 120.839 62.1245 113.501 48.5238 107.081C34.9231 100.775 18.0952 95.3861 9.79645 84.0355C1.49774 72.6848 1.84351 55.1429 12.5627 46.8879C23.2819 38.5182 44.4897 39.4354 57.8598 30.6071C71.3453 21.8935 76.993 3.54898 84.9459 0.453343C92.8989 -2.52764 103.042 9.74025 108.228 21.2056Z" fill="white"/>
    </g>
    <path d="M102.316 27.0247C106.711 36.6728 106.808 45.7361 111.496 54.5071C116.281 63.3755 125.559 72.049 124.974 78.676C124.388 85.3029 113.938 89.7859 104.855 96.023C95.8699 102.163 88.2522 110.057 80.1462 110.934C72.0402 111.713 63.2505 105.476 51.7263 100.019C40.202 94.6586 25.9432 90.0782 18.9115 80.4302C11.8798 70.7821 12.1727 55.8715 21.2554 48.8547C30.3381 41.7405 48.3081 42.5201 59.637 35.0161C71.0635 27.6095 75.849 12.0166 82.5878 9.38534C89.3265 6.85151 97.9209 17.2792 102.316 27.0247Z" fill="#67B69E"/>
    <defs>
        <filter id="filter0_d_74_4318" x="0" y="0" width="139" height="128" filterUnits="userSpaceOnUse" color-interpolation-filters="sRGB">
            <feFlood flood-opacity="0" result="BackgroundImageFix"/>
            <feColorMatrix in="SourceAlpha" type="matrix" values="0 0 0 0 0 0 0 0 0 0 0 0 0 0 0 0 0 0 127 0" result="hardAlpha"/>
            <feOffset dy="4"/>
            <feGaussianBlur stdDeviation="2"/>
            <feComposite in2="hardAlpha" operator="out"/>
            <feColorMatrix type="matrix" values="0 0 0 0 0 0 0 0 0 0 0 0 0 0 0 0 0 0 0.25 0"/>
            <feBlend mode="normal" in2="BackgroundImageFix" result="effect1_dropShadow_74_4318"/>
            <feBlend mode="normal" in="SourceGraphic" in2="effect1_dropShadow_74_4318" result="shape"/>
        </filter>
    </defs>
    <svg  x="50" y ="45" width="55" height="44" viewBox="0 0 55 44" fill="none" xmlns="http://www.w3.org/2000/svg">
        <g clip-path="url(#clip0_74_4330)">
            <path d="M9.20391 24.69L4.43609 27.44C3.79156 27.7945 3.38336 28.4824 3.37219 29.2344C3.37219 29.9756 3.76965 30.6635 4.41461 31.0391C5.06988 31.4043 5.86438 31.3936 6.49859 31.0069L11.2681 28.2569C12.2237 27.6768 12.546 26.4307 11.9879 25.4639C11.4297 24.4838 10.1836 24.14 9.20391 24.69ZM11.2664 4.74823L6.49687 1.99823C5.86309 1.61151 5.06859 1.60076 4.41289 1.966C3.76836 2.34198 3.37047 3.02991 3.37047 3.77069C3.38336 4.52307 3.79156 5.21057 4.43609 5.56463L9.20391 8.31463C9.83984 8.70565 10.6391 8.71424 11.2922 8.34729C11.9367 7.97088 12.332 7.28338 12.332 6.5426C12.3234 5.79065 11.9109 5.10315 11.2664 4.74823ZM9.625 16.5002C9.625 15.3615 8.70117 14.4377 7.5625 14.4377H2.0625C0.923828 14.4377 0 15.3615 0 16.5002C0 17.6389 0.923828 18.5627 2.0625 18.5627H7.5625C8.70547 18.5627 9.625 17.6431 9.625 16.5002ZM44.7734 8.59393C45.1279 8.59393 45.4824 8.49725 45.8047 8.31463L50.5639 5.56463C51.5307 4.98455 51.8427 3.73846 51.2836 2.77166C50.725 1.79369 49.4789 1.44994 48.501 1.99823L43.7422 4.74823C42.9258 5.21014 42.5391 6.16619 42.7754 7.06854C43.0203 7.97088 43.8367 8.59393 44.7734 8.59393ZM52.9375 14.4377H47.4375C46.2988 14.4377 45.375 15.3615 45.375 16.5002C45.375 17.6389 46.2988 18.5627 47.4375 18.5627H52.9375C54.0762 18.5627 55 17.6389 55 16.5002C55 15.3615 54.0805 14.4377 52.9375 14.4377ZM50.5656 27.44L45.7961 24.69C45.1623 24.3033 44.3678 24.2926 43.7121 24.6578C43.0676 25.0338 42.6705 25.7217 42.6705 26.4625C42.6813 27.2144 43.0895 27.9019 43.7345 28.2569L48.504 31.0069C49.482 31.5547 50.728 31.211 51.2866 30.2334C51.8461 29.2619 51.5195 28.0158 50.5656 27.44ZM27.5 0.000488281C18.7344 0.0280141 12.375 7.13127 12.375 15.0478C12.375 18.8617 13.7844 22.3371 16.115 24.9994C17.5355 26.6185 19.7553 30.0061 20.6044 32.861C20.6071 32.8824 20.6115 32.9035 20.6142 32.9263L34.39 32.9264C34.3927 32.9035 34.3945 32.8838 34.3972 32.861C35.2458 30.0061 37.466 26.6185 38.8865 24.9994C41.2156 22.4127 42.625 18.9408 42.625 15.0478C42.625 6.77205 35.8531 0.000823437 27.5 0.000488281ZM35.7844 22.3525C34.4386 23.8865 32.7731 26.3314 31.5691 28.8743H23.4386C22.2346 26.3314 20.5691 23.8865 19.2242 22.3534C17.4625 20.3502 16.5 17.7119 16.5 15.0478C16.5 9.7369 20.6336 4.14666 27.4227 4.12518C33.5672 4.12518 38.5 9.05799 38.5 15.0478C38.5 17.7119 37.5375 20.3502 35.7844 22.3525ZM20.6336 39.0502C20.6336 39.5913 20.796 40.1184 21.0941 40.5696L22.5628 42.7773C23.014 43.454 24.0392 44.0045 24.853 44.0045H30.1571C30.9682 44.0045 31.9944 43.4549 32.4456 42.7781L33.9143 40.5704C34.1688 40.1846 34.375 39.5056 34.375 39.0502V35.7536L20.6336 35.754V39.0502ZM26.125 6.87518C22.3352 6.87518 19.25 9.96033 19.25 13.7502C19.25 14.5102 19.865 15.126 20.625 15.126C21.385 15.126 22 14.5064 22 13.7502C22 11.4754 23.8502 9.62518 26.125 9.62518C26.885 9.62518 27.5 9.01116 27.5 8.25104C27.5 7.49092 26.8813 6.87518 26.125 6.87518Z" fill="#4D3A59"/>
        </g>
        <defs>
            <clipPath id="clip0_74_4330">
                <rect width="55" height="44" fill="white"/>
            </clipPath>
        </defs>
    </svg>
</svg>
