<svg width="104" height="170" viewBox="0 0 104 170" fill="none" xmlns="http://www.w3.org/2000/svg">
    <path d="M102.992 24.0951L40.2336 0.752441L49.4384 16.6486L30.5566 18.1355L56.4837 28.0603L102.992 24.0951Z" fill="#3C3077"/>
    <path d="M56.4238 29.0635L56.1052 28.9809L31.3346 19.5046C30.7799 19.2922 30.4495 18.7257 30.5321 18.1357C30.6147 17.5456 31.0867 17.0972 31.6886 17.05L47.7971 15.7755L39.7724 1.90914C39.501 1.43709 39.5481 0.870641 39.9022 0.457602C40.2562 0.0445622 40.8109 -0.108861 41.3065 0.0799569L102.2 22.7263C102.755 22.9387 103.097 23.4934 103.015 24.0835C102.932 24.6735 102.46 25.122 101.87 25.181L56.4356 29.0635H56.4238ZM35.0165 18.773L56.6362 27.0455L98.5066 23.4698L42.4866 2.629L50.0866 15.7519C50.3108 16.1295 50.3108 16.5897 50.1102 16.9792C49.9096 17.3686 49.5201 17.6164 49.0835 17.6519L35.0165 18.7611V18.773Z" fill="#3C3077"/>
    <path d="M73.0902 55.5689L2.30707 61.6111C2.11825 61.6229 2.08283 61.8943 2.25985 61.9651L31.9869 72.0433L102.156 66.0483C102.345 66.0365 102.381 65.7651 102.204 65.6943L73.0902 55.5571V55.5689Z" fill="#3C3077"/>
    <path d="M0.00390625 62.8027V31.8955L103.995 23.0093V53.9164L0.00390625 62.8027ZM1.98652 33.7129V60.6313L102.001 52.0873V25.1689L1.98652 33.7129Z" fill="#3C3077"/>
    <path d="M0.00390625 104.697V73.7896L103.995 64.9033V95.8105L0.00390625 104.697ZM1.98652 75.6069V102.525L102.001 93.9813V67.0629L1.98652 75.6069Z" fill="#3C3077"/>
    <path d="M6.34275 79.7727C5.8353 79.7727 5.39863 79.3833 5.35143 78.8641C5.30422 78.3212 5.70548 77.8374 6.26014 77.7902L10.0247 77.4715C10.5676 77.4243 11.0514 77.8256 11.0986 78.3802C11.1458 78.9231 10.7445 79.4069 10.1899 79.4541L6.42533 79.7727C6.42533 79.7727 6.36636 79.7727 6.34275 79.7727Z" fill="#3C3077"/>
    <path d="M14.4736 79.0766C13.9661 79.0766 13.5295 78.6872 13.4823 78.168C13.4351 77.6251 13.8363 77.1413 14.391 77.0941L16.704 76.8934C17.2469 76.8462 17.7307 77.2475 17.7779 77.8021C17.8251 78.345 17.4239 78.8288 16.8692 78.876L14.5562 79.0766C14.5562 79.0766 14.4972 79.0766 14.4736 79.0766Z" fill="#3C3077"/>
    <path d="M0.995097 86.4637C0.487649 86.4637 0.0509752 86.0742 0.00377065 85.555C-0.0434339 85.0121 0.357827 84.5283 0.91248 84.4811L11.2031 83.6078C11.7341 83.5606 12.2298 83.9618 12.277 84.5165C12.3242 85.0593 11.9229 85.5432 11.3683 85.5904L1.07768 86.4637C1.07768 86.4637 1.0187 86.4637 0.995097 86.4637Z" fill="#3C3077"/>
    <path d="M14.1415 85.3428C13.6341 85.3428 13.1975 84.9534 13.1503 84.4342C13.1031 83.8913 13.5043 83.4074 14.0589 83.3602L16.7024 83.136C17.2571 83.1006 17.7291 83.49 17.7763 84.0447C17.8235 84.5993 17.4223 85.0714 16.8676 85.1186L14.2242 85.3428C14.2242 85.3428 14.1651 85.3428 14.1415 85.3428Z" fill="#3C3077"/>
    <path d="M4.72358 92.3764C4.21613 92.3764 3.77949 91.9869 3.73229 91.4677C3.68508 90.9248 4.08634 90.441 4.641 90.3938L7.87449 90.1223C8.42915 90.0869 8.9012 90.4764 8.9484 91.031C8.9956 91.5739 8.59434 92.0577 8.03969 92.1049L4.80619 92.3764C4.80619 92.3764 4.74718 92.3764 4.72358 92.3764Z" fill="#3C3077"/>
    <path d="M12.2294 91.7274C11.722 91.7274 11.2854 91.3379 11.2381 90.8187C11.1909 90.2758 11.5922 89.792 12.1468 89.7448L16.7138 89.3553C17.2567 89.3081 17.7406 89.7094 17.7878 90.264C17.835 90.8069 17.4337 91.2907 16.8791 91.3379L12.3121 91.7274C12.3121 91.7274 12.253 91.7274 12.2294 91.7274Z" fill="#3C3077"/>
    <path d="M0.995097 98.9257C0.487649 98.9257 0.0509752 98.5362 0.00377065 98.017C-0.0434339 97.4741 0.357827 96.9903 0.91248 96.9431L5.5739 96.5419C6.10495 96.4947 6.60061 96.8959 6.64781 97.4505C6.69501 97.9934 6.29379 98.4772 5.73914 98.5244L1.07768 98.9257C1.07768 98.9257 1.0187 98.9257 0.995097 98.9257Z" fill="#3C3077"/>
    <path d="M10.3076 98.1234C9.80011 98.1234 9.36348 97.7339 9.31627 97.2147C9.26907 96.6718 9.67029 96.188 10.2249 96.1408L14.0603 95.8103C14.6032 95.7749 15.087 96.1644 15.1342 96.719C15.1814 97.2619 14.7802 97.7457 14.2255 97.793L10.3902 98.1234C10.3902 98.1234 10.3312 98.1234 10.3076 98.1234Z" fill="#3C3077"/>
    <path d="M6.88764 38.7757C6.38019 38.7757 5.94355 38.3863 5.89635 37.867C5.84914 37.3242 6.25037 36.8403 6.80502 36.7931L10.5696 36.4745C11.1242 36.4273 11.5963 36.8285 11.6435 37.3832C11.6907 37.926 11.2895 38.4099 10.7348 38.4571L6.97026 38.7757C6.97026 38.7757 6.91124 38.7757 6.88764 38.7757Z" fill="#3C3077"/>
    <path d="M15.0185 38.0796C14.5111 38.0796 14.0744 37.6901 14.0272 37.1709C13.98 36.628 14.3813 36.1442 14.9359 36.097L17.2489 35.8963C17.7918 35.8491 18.2756 36.2504 18.3228 36.805C18.37 37.3479 17.9688 37.8317 17.4141 37.8789L15.1011 38.0796C15.1011 38.0796 15.0421 38.0796 15.0185 38.0796Z" fill="#3C3077"/>
    <path d="M1.53998 45.4671C1.03253 45.4671 0.595897 45.0776 0.548693 44.5584C0.501488 44.0155 0.902714 43.5317 1.45737 43.4845L11.748 42.6112C12.279 42.564 12.7747 42.9652 12.8219 43.5199C12.8691 44.0627 12.4678 44.5466 11.9132 44.5938L1.6226 45.4671C1.6226 45.4671 1.56359 45.4671 1.53998 45.4671Z" fill="#3C3077"/>
    <path d="M14.6865 44.334C14.179 44.334 13.7424 43.9446 13.6952 43.4254C13.648 42.8825 14.0492 42.3987 14.6039 42.3515L17.2473 42.1272C17.802 42.0918 18.274 42.4813 18.3212 43.0359C18.3684 43.5788 17.9672 44.0626 17.4125 44.1098L14.7691 44.334C14.7691 44.334 14.7101 44.334 14.6865 44.334Z" fill="#3C3077"/>
    <path d="M5.2685 51.3676C4.76105 51.3676 4.32441 50.9781 4.27721 50.4589C4.23 49.916 4.63123 49.4322 5.18588 49.385L8.41938 49.1136C8.97403 49.0782 9.44608 49.4676 9.49329 50.0222C9.54049 50.5651 9.13927 51.0489 8.58461 51.0961L5.35108 51.3676C5.35108 51.3676 5.2921 51.3676 5.2685 51.3676Z" fill="#3C3077"/>
    <path d="M12.7646 50.7303C12.2571 50.7303 11.8205 50.3408 11.7733 49.8216C11.7261 49.2787 12.1274 48.7949 12.682 48.7477L17.249 48.3583C17.7919 48.3111 18.2757 48.7123 18.3229 49.2669C18.3702 49.8098 17.9689 50.2936 17.4142 50.3408L12.8472 50.7303C12.8472 50.7303 12.7882 50.7303 12.7646 50.7303Z" fill="#3C3077"/>
    <path d="M1.53998 57.9174C1.03253 57.9174 0.595897 57.5279 0.548693 57.0087C0.501488 56.4658 0.902714 55.982 1.45737 55.9348L6.11883 55.5336C6.64988 55.4864 7.14553 55.8876 7.19273 56.4422C7.23994 56.9851 6.83868 57.4689 6.28402 57.5161L1.6226 57.9174C1.6226 57.9174 1.56359 57.9174 1.53998 57.9174Z" fill="#3C3077"/>
    <path d="M10.8525 57.1263C10.345 57.1263 9.9084 56.7369 9.86119 56.2176C9.81399 55.6748 10.2152 55.1909 10.7699 55.1437L14.6053 54.8133C15.1363 54.7779 15.6319 55.1673 15.6791 55.7219C15.7263 56.2648 15.3251 56.7486 14.7705 56.7958L10.9351 57.1263C10.9351 57.1263 10.8761 57.1263 10.8525 57.1263Z" fill="#3C3077"/>
    <path d="M92.5517 29.6531C92.0442 29.6531 91.6076 29.2637 91.5604 28.7444C91.5132 28.2016 91.9145 27.7177 92.4691 27.6705L96.2337 27.3519C96.7647 27.3047 97.2604 27.7059 97.3076 28.2606C97.3548 28.8034 96.9535 29.2873 96.3988 29.3345L92.6343 29.6531C92.6343 29.6531 92.5753 29.6531 92.5517 29.6531Z" fill="#3C3077"/>
    <path d="M100.683 28.9569C100.175 28.9569 99.7385 28.5675 99.6913 28.0483C99.6441 27.5054 100.045 27.0216 100.6 26.9744L102.913 26.7737C103.444 26.7383 103.94 27.1278 103.987 27.6824C104.034 28.2253 103.633 28.7091 103.078 28.7563L100.765 28.9569C100.765 28.9569 100.706 28.9569 100.683 28.9569Z" fill="#3C3077"/>
    <path d="M87.2041 36.3329C86.6966 36.3329 86.26 35.9434 86.2128 35.4242C86.1656 34.8813 86.5668 34.3975 87.1215 34.3503L97.4121 33.4652C97.9431 33.418 98.4388 33.8192 98.486 34.3739C98.5332 34.9167 98.1319 35.4006 97.5772 35.4478L87.2867 36.3329C87.2867 36.3329 87.2277 36.3329 87.2041 36.3329Z" fill="#3C3077"/>
    <path d="M100.351 35.2116C99.8431 35.2116 99.4064 34.8221 99.3592 34.3029C99.312 33.76 99.7133 33.2762 100.268 33.229L102.911 33.0047C103.454 32.9575 103.938 33.3588 103.985 33.9135C104.032 34.4563 103.631 34.9402 103.077 34.9874L100.433 35.2116C100.433 35.2116 100.374 35.2116 100.351 35.2116Z" fill="#3C3077"/>
    <path d="M90.9325 42.2447C90.4251 42.2447 89.9885 41.8553 89.9413 41.336C89.8941 40.7932 90.2953 40.3093 90.85 40.2621L94.0835 39.9789C94.6381 39.9317 95.1101 40.3329 95.1573 40.8876C95.2046 41.4422 94.8033 41.9143 94.2486 41.9615L91.0151 42.2447C91.0151 42.2447 90.9561 42.2447 90.9325 42.2447Z" fill="#3C3077"/>
    <path d="M98.4385 41.6077C97.931 41.6077 97.4943 41.2182 97.4471 40.699C97.3999 40.1561 97.8012 39.6723 98.3558 39.6251L102.923 39.2356C103.466 39.2002 103.95 39.5897 103.997 40.1443C104.044 40.6872 103.643 41.171 103.088 41.2182L98.5211 41.6077C98.5211 41.6077 98.4621 41.6077 98.4385 41.6077Z" fill="#3C3077"/>
    <path d="M87.2041 48.7948C86.6966 48.7948 86.26 48.4054 86.2128 47.8861C86.1656 47.3433 86.5668 46.8594 87.1215 46.8122L91.7829 46.411C92.3258 46.3638 92.8096 46.765 92.8568 47.3197C92.904 47.8625 92.5028 48.3464 91.9482 48.3936L87.2867 48.7948C87.2867 48.7948 87.2277 48.7948 87.2041 48.7948Z" fill="#3C3077"/>
    <path d="M96.5166 47.9921C96.0091 47.9921 95.5725 47.6027 95.5253 47.0834C95.4781 46.5405 95.8793 46.0567 96.434 46.0095L100.269 45.6791C100.824 45.6319 101.296 46.0331 101.343 46.5877C101.39 47.1306 100.989 47.6144 100.435 47.6616L96.5992 47.9921C96.5992 47.9921 96.5402 47.9921 96.5166 47.9921Z" fill="#3C3077"/>
    <path d="M91.8779 73.0935C91.3705 73.0935 90.9338 72.704 90.8866 72.1848C90.8394 71.6419 91.2406 71.1581 91.7953 71.1109L95.5599 70.7923C96.0909 70.7569 96.5865 71.1463 96.6337 71.7009C96.6809 72.2438 96.2797 72.7276 95.725 72.7749L91.9605 73.0935C91.9605 73.0935 91.9015 73.0935 91.8779 73.0935Z" fill="#3C3077"/>
    <path d="M100.018 72.3974C99.511 72.3974 99.0744 72.008 99.0272 71.4888C98.98 70.9459 99.3812 70.4621 99.9358 70.4149L102.249 70.2142C102.78 70.167 103.276 70.5683 103.323 71.1229C103.37 71.6658 102.969 72.1496 102.414 72.1968L100.101 72.3974C100.101 72.3974 100.042 72.3974 100.018 72.3974Z" fill="#3C3077"/>
    <path d="M94.165 79.1242C93.6576 79.1242 93.2209 78.7347 93.1737 78.2155C93.1265 77.6726 93.5277 77.1888 94.0824 77.1416L96.7377 76.9173C97.2687 76.8701 97.7643 77.2714 97.8115 77.826C97.8587 78.3689 97.4575 78.8527 96.9028 78.8999L94.2476 79.1242C94.2476 79.1242 94.1886 79.1242 94.165 79.1242Z" fill="#3C3077"/>
    <path d="M99.6767 78.6519C99.1693 78.6519 98.7326 78.2624 98.6854 77.7432C98.6382 77.2003 99.0395 76.7165 99.5941 76.6693L102.238 76.4451C102.769 76.4097 103.264 76.7991 103.312 77.3538C103.359 77.9084 102.957 78.3805 102.403 78.4277L99.7594 78.6519C99.7594 78.6519 99.7003 78.6519 99.6767 78.6519Z" fill="#3C3077"/>
    <path d="M90.2724 85.6855C89.7649 85.6855 89.3283 85.296 89.2811 84.7768C89.2339 84.2339 89.6351 83.7501 90.1898 83.7029L93.4233 83.4314C93.978 83.396 94.45 83.7855 94.4972 84.3401C94.5444 84.883 94.1431 85.3668 93.5885 85.414L90.355 85.6855C90.355 85.6855 90.296 85.6855 90.2724 85.6855Z" fill="#3C3077"/>
    <path d="M97.7646 85.0481C97.2572 85.0481 96.8205 84.6587 96.7733 84.1395C96.7261 83.5966 97.1274 83.1128 97.682 83.0656L102.249 82.6761C102.78 82.6289 103.276 83.0302 103.323 83.5848C103.37 84.1277 102.969 84.6115 102.414 84.6587L97.8472 85.0481C97.8472 85.0481 97.7882 85.0481 97.7646 85.0481Z" fill="#3C3077"/>
    <path d="M86.5302 92.2347C86.0227 92.2347 85.5861 91.8453 85.5389 91.326C85.4917 90.7832 85.8929 90.2993 86.4476 90.2521L91.109 89.8509C91.6519 89.8155 92.1357 90.2049 92.1829 90.7595C92.2301 91.3142 91.8289 91.7862 91.2743 91.8334L86.6128 92.2347C86.6128 92.2347 86.5538 92.2347 86.5302 92.2347Z" fill="#3C3077"/>
    <path d="M95.8506 91.4441C95.3431 91.4441 94.9064 91.0547 94.8592 90.5354C94.812 89.9926 95.2133 89.5088 95.7679 89.4616L99.6033 89.1311C100.134 89.0957 100.63 89.4852 100.677 90.0398C100.724 90.5945 100.323 91.0665 99.7685 91.1137L95.9332 91.4441C95.9332 91.4441 95.8742 91.4441 95.8506 91.4441Z" fill="#3C3077"/>
    <path d="M31.7244 73.0583L31.5356 72.9403L1.92656 62.8975C1.39551 62.7205 1.0769 62.2012 1.1359 61.6466C1.19491 61.0919 1.64334 60.6671 2.198 60.6199L73.2526 54.5659L73.406 54.6249L102.519 64.7621C103.05 64.9509 103.369 65.4701 103.298 66.0248C103.227 66.5795 102.791 66.9925 102.224 67.0397L31.7126 73.0701L31.7244 73.0583ZM6.25759 62.2602L32.1139 71.0285L98.271 65.3758L72.9694 56.5603L6.25759 62.2602Z" fill="#3C3077"/>
    <path d="M0.746094 145.883L63.5045 169.225L54.2996 153.329L73.1932 151.842L47.2544 141.906L0.746094 145.883Z" fill="#3C3077"/>
    <path d="M62.8778 169.969C62.7244 169.969 62.5828 169.945 62.4293 169.886L1.53551 147.24C0.980862 147.028 0.638626 146.473 0.721234 145.883C0.803842 145.293 1.27589 144.844 1.86594 144.797L47.3357 140.915L47.6779 141.021L72.3895 150.485C72.9441 150.698 73.2746 151.264 73.192 151.854C73.1094 152.444 72.6255 152.893 72.0355 152.94L55.9269 154.214L63.9517 168.081C64.2231 168.541 64.1641 169.131 63.8219 169.544C63.574 169.827 63.22 169.993 62.8542 169.993L62.8778 169.969ZM5.24105 146.496L61.261 167.325L53.6611 154.203C53.4369 153.825 53.4369 153.365 53.6375 152.975C53.8381 152.586 54.2275 152.338 54.6642 152.303L68.7311 151.193L47.1114 142.921L5.24105 146.496Z" fill="#3C3077"/>
    <path d="M73.0902 97.9229L2.30707 103.965C2.11825 103.977 2.08283 104.248 2.25985 104.319L31.9869 114.397L102.156 108.402C102.345 108.391 102.381 108.119 102.204 108.048L73.0902 97.9111V97.9229Z" fill="#3C3077"/>
    <path d="M0.00390625 147.051V116.144L103.995 107.258V138.165L0.00390625 147.051ZM1.98652 117.961V144.88L102.001 136.336V109.417L1.98652 117.961Z" fill="#3C3077"/>
    <path d="M6.34275 122.139C5.8353 122.139 5.39863 121.75 5.35143 121.23C5.30422 120.687 5.70548 120.204 6.26014 120.156L10.0247 119.838C10.5676 119.791 11.0514 120.192 11.0986 120.746C11.1458 121.289 10.7445 121.773 10.1899 121.82L6.42533 122.139C6.42533 122.139 6.36636 122.139 6.34275 122.139Z" fill="#3C3077"/>
    <path d="M14.4736 121.442C13.9661 121.442 13.5295 121.053 13.4823 120.534C13.4351 119.991 13.8363 119.507 14.391 119.46L16.704 119.259C17.2469 119.224 17.7307 119.613 17.7779 120.168C17.8251 120.711 17.4239 121.194 16.8692 121.242L14.5562 121.442C14.5562 121.442 14.4972 121.442 14.4736 121.442Z" fill="#3C3077"/>
    <path d="M0.995097 128.83C0.487649 128.83 0.0509752 128.441 0.00377065 127.922C-0.0434339 127.379 0.357827 126.895 0.91248 126.848L11.2031 125.963C11.7341 125.927 12.2298 126.317 12.277 126.871C12.3242 127.414 11.9229 127.898 11.3683 127.945L1.07768 128.83C1.07768 128.83 1.0187 128.83 0.995097 128.83Z" fill="#3C3077"/>
    <path d="M14.1415 127.709C13.6341 127.709 13.1975 127.319 13.1503 126.8C13.1031 126.257 13.5043 125.773 14.0589 125.726L16.7024 125.502C17.2571 125.455 17.7291 125.856 17.7763 126.411C17.8235 126.965 17.4223 127.437 16.8676 127.484L14.2242 127.709C14.2242 127.709 14.1651 127.709 14.1415 127.709Z" fill="#3C3077"/>
    <path d="M4.72358 134.742C4.21613 134.742 3.77949 134.353 3.73229 133.834C3.68508 133.291 4.08634 132.807 4.641 132.76L7.87449 132.476C8.42915 132.429 8.9012 132.83 8.9484 133.385C8.9956 133.94 8.59434 134.412 8.03969 134.459L4.80619 134.742C4.80619 134.742 4.74718 134.742 4.72358 134.742Z" fill="#3C3077"/>
    <path d="M12.2294 134.093C11.722 134.093 11.2854 133.704 11.2381 133.185C11.1909 132.642 11.5922 132.158 12.1468 132.111L16.7138 131.721C17.2685 131.686 17.7406 132.075 17.7878 132.63C17.835 133.173 17.4337 133.657 16.8791 133.704L12.3121 134.093C12.3121 134.093 12.253 134.093 12.2294 134.093Z" fill="#3C3077"/>
    <path d="M0.995097 141.28C0.487649 141.28 0.0509752 140.891 0.00377065 140.371C-0.0434339 139.829 0.357827 139.345 0.91248 139.298L5.5739 138.896C6.10495 138.849 6.60061 139.25 6.64781 139.805C6.69501 140.348 6.29379 140.832 5.73914 140.879L1.07768 141.28C1.07768 141.28 1.0187 141.28 0.995097 141.28Z" fill="#3C3077"/>
    <path d="M10.3076 140.49C9.80011 140.49 9.36348 140.1 9.31627 139.581C9.26907 139.038 9.67029 138.554 10.2249 138.507L14.0603 138.177C14.6032 138.129 15.087 138.531 15.1342 139.085C15.1814 139.628 14.7802 140.112 14.2255 140.159L10.3902 140.49C10.3902 140.49 10.3312 140.49 10.3076 140.49Z" fill="#3C3077"/>
    <path d="M91.8779 115.448C91.3705 115.448 90.9338 115.058 90.8866 114.539C90.8394 113.996 91.2406 113.512 91.7953 113.465L95.5599 113.146C96.0909 113.099 96.5865 113.5 96.6337 114.055C96.6809 114.598 96.2797 115.082 95.725 115.129L91.9605 115.448C91.9605 115.448 91.9015 115.448 91.8779 115.448Z" fill="#3C3077"/>
    <path d="M100.018 114.764C99.511 114.764 99.0744 114.374 99.0272 113.855C98.98 113.312 99.3812 112.828 99.9358 112.781L102.249 112.58C102.78 112.545 103.276 112.934 103.323 113.489C103.37 114.032 102.969 114.516 102.414 114.563L100.101 114.764C100.101 114.764 100.042 114.764 100.018 114.764Z" fill="#3C3077"/>
    <path d="M94.165 121.49C93.6576 121.49 93.2209 121.1 93.1737 120.581C93.1265 120.038 93.5277 119.554 94.0824 119.507L96.7377 119.283C97.2687 119.236 97.7643 119.637 97.8115 120.192C97.8587 120.735 97.4575 121.218 96.9028 121.266L94.2476 121.49C94.2476 121.49 94.1886 121.49 94.165 121.49Z" fill="#3C3077"/>
    <path d="M99.6767 121.018C99.1693 121.018 98.7326 120.629 98.6854 120.11C98.6382 119.567 99.0395 119.083 99.5941 119.036L102.238 118.811C102.769 118.764 103.264 119.165 103.312 119.72C103.359 120.275 102.957 120.747 102.403 120.794L99.7594 121.018C99.7594 121.018 99.7003 121.018 99.6767 121.018Z" fill="#3C3077"/>
    <path d="M90.2724 128.052C89.7649 128.052 89.3283 127.662 89.2811 127.143C89.2339 126.6 89.6351 126.116 90.1898 126.069L93.4233 125.798C93.978 125.751 94.45 126.152 94.4972 126.706C94.5444 127.249 94.1431 127.733 93.5885 127.78L90.355 128.052C90.355 128.052 90.296 128.052 90.2724 128.052Z" fill="#3C3077"/>
    <path d="M97.7646 127.414C97.2572 127.414 96.8205 127.025 96.7733 126.506C96.7261 125.963 97.1274 125.479 97.682 125.432L102.249 125.042C102.78 125.007 103.276 125.396 103.323 125.951C103.37 126.494 102.969 126.978 102.414 127.025L97.8472 127.414C97.8472 127.414 97.7882 127.414 97.7646 127.414Z" fill="#3C3077"/>
    <path d="M86.5302 134.601C86.0227 134.601 85.5861 134.212 85.5389 133.692C85.4917 133.149 85.8929 132.666 86.4476 132.618L91.109 132.217C91.6637 132.17 92.1357 132.571 92.1829 133.126C92.2301 133.669 91.8289 134.153 91.2743 134.2L86.6128 134.601C86.6128 134.601 86.5538 134.601 86.5302 134.601Z" fill="#3C3077"/>
    <path d="M95.8506 133.799C95.3431 133.799 94.9064 133.409 94.8592 132.89C94.812 132.347 95.2133 131.863 95.7679 131.816L99.6033 131.486C100.158 131.439 100.63 131.84 100.677 132.394C100.724 132.937 100.323 133.421 99.7685 133.468L95.9332 133.799C95.9332 133.799 95.8742 133.799 95.8506 133.799Z" fill="#3C3077"/>
    <path d="M31.7244 115.424L31.5356 115.306L1.92656 105.263C1.39551 105.086 1.0769 104.567 1.1359 104.012C1.20671 103.458 1.64334 103.033 2.198 102.986L73.2526 96.9316L73.406 96.9906L102.519 107.128C103.05 107.317 103.369 107.836 103.298 108.391C103.227 108.945 102.791 109.358 102.224 109.405L31.7126 115.436L31.7244 115.424ZM6.25759 104.626L32.1139 113.394L98.271 107.741L72.9694 98.926L6.25759 104.626Z" fill="#3C3077"/>
    <path d="M49.16 47.808C49.2027 47.808 49.224 47.84 49.224 47.904C49.224 47.968 49.2027 48 49.16 48C48.904 48 48.7013 47.9947 48.552 47.984L47.688 47.968L46.808 47.984C46.648 47.9947 46.44 48 46.184 48C46.1627 48 46.152 47.968 46.152 47.904C46.152 47.84 46.1627 47.808 46.184 47.808C46.5893 47.808 46.856 47.7387 46.984 47.6C47.112 47.4507 47.176 47.152 47.176 46.704V44.208C47.176 43.5893 47.0587 43.1307 46.824 42.832C46.5893 42.5227 46.2267 42.368 45.736 42.368C45.4267 42.368 45.1067 42.4533 44.776 42.624C44.4453 42.784 44.1467 43.008 43.88 43.296V46.704C43.88 47.152 43.944 47.4507 44.072 47.6C44.2 47.7387 44.4613 47.808 44.856 47.808C44.8987 47.808 44.92 47.84 44.92 47.904C44.92 47.968 44.8987 48 44.856 48C44.6 48 44.3973 47.9947 44.248 47.984L43.384 47.968L42.504 47.984C42.344 47.9947 42.136 48 41.88 48C41.8587 48 41.848 47.968 41.848 47.904C41.848 47.84 41.8587 47.808 41.88 47.808C42.2853 47.808 42.552 47.7387 42.68 47.6C42.808 47.4507 42.872 47.152 42.872 46.704V38.496C42.872 38.3573 42.792 38.288 42.632 38.288H40.12C39.6933 38.288 39.384 38.3147 39.192 38.368C39.0107 38.4107 38.8827 38.5013 38.808 38.64C38.744 38.7787 38.712 39.008 38.712 39.328V46.704C38.712 47.0347 38.744 47.2747 38.808 47.424C38.8827 47.5733 39.0213 47.6747 39.224 47.728C39.4373 47.7813 39.7733 47.808 40.232 47.808C40.2533 47.808 40.264 47.84 40.264 47.904C40.264 47.968 40.2533 48 40.232 48C39.8693 48 39.5813 47.9947 39.368 47.984L38.104 47.968L36.888 47.984C36.6747 47.9947 36.376 48 35.992 48C35.9707 48 35.96 47.968 35.96 47.904C35.96 47.84 35.9707 47.808 35.992 47.808C36.44 47.808 36.7707 47.7813 36.984 47.728C37.1973 47.6747 37.3413 47.5733 37.416 47.424C37.4907 47.264 37.528 47.024 37.528 46.704V39.296C37.528 38.976 37.4907 38.752 37.416 38.624C37.352 38.4853 37.224 38.3947 37.032 38.352C36.8507 38.3093 36.5413 38.288 36.104 38.288C35.4427 38.288 34.9307 38.4693 34.568 38.832C34.216 39.184 33.96 39.7707 33.8 40.592C33.7893 40.624 33.752 40.64 33.688 40.64C33.6347 40.6293 33.608 40.6133 33.608 40.592C33.6507 40.2933 33.6987 39.8133 33.752 39.152C33.8053 38.4907 33.832 37.9893 33.832 37.648C33.832 37.5947 33.864 37.568 33.928 37.568C33.992 37.568 34.024 37.5947 34.024 37.648C34.024 37.8827 34.312 38 34.888 38C35.496 38.0213 36.568 38.032 38.104 38.032C39.6507 38.032 40.68 38.0213 41.192 38C41.8533 37.9787 42.392 37.8293 42.808 37.552C43.2347 37.2747 43.5173 36.8907 43.656 36.4C43.656 36.368 43.688 36.352 43.752 36.352C43.784 36.352 43.8107 36.3573 43.832 36.368C43.864 36.3787 43.88 36.3947 43.88 36.416V43.008C44.2747 42.5493 44.6747 42.208 45.08 41.984C45.4853 41.76 45.9067 41.648 46.344 41.648C46.92 41.648 47.368 41.8187 47.688 42.16C48.0187 42.5013 48.184 42.9867 48.184 43.616V46.704C48.184 47.152 48.248 47.4507 48.376 47.6C48.504 47.7387 48.7653 47.808 49.16 47.808ZM51.7076 39.856C51.473 39.856 51.2863 39.792 51.1476 39.664C51.0196 39.536 50.9556 39.3547 50.9556 39.12C50.9556 38.9067 51.0196 38.736 51.1476 38.608C51.2863 38.48 51.473 38.416 51.7076 38.416C51.9316 38.416 52.1076 38.48 52.2356 38.608C52.3636 38.736 52.4276 38.9067 52.4276 39.12C52.4276 39.3547 52.3636 39.536 52.2356 39.664C52.1076 39.792 51.9316 39.856 51.7076 39.856ZM50.3316 48C50.2996 48 50.2836 47.968 50.2836 47.904C50.2836 47.84 50.2996 47.808 50.3316 47.808C50.7263 47.808 50.9876 47.7387 51.1156 47.6C51.2436 47.4507 51.3076 47.152 51.3076 46.704V43.728C51.3076 43.3547 51.2703 43.0827 51.1956 42.912C51.121 42.7413 50.9876 42.656 50.7956 42.656C50.6143 42.656 50.3796 42.7307 50.0916 42.88H50.0756C50.033 42.88 50.001 42.8533 49.9796 42.8C49.9583 42.7467 49.969 42.7093 50.0116 42.688L52.1396 41.696L52.2036 41.68C52.2356 41.68 52.2676 41.696 52.2996 41.728C52.3423 41.76 52.3636 41.792 52.3636 41.824C52.3636 41.8987 52.3583 42.112 52.3476 42.464C52.337 42.816 52.3316 43.232 52.3316 43.712V46.704C52.3316 47.0133 52.353 47.248 52.3956 47.408C52.449 47.5573 52.545 47.664 52.6836 47.728C52.8223 47.7813 53.0303 47.808 53.3076 47.808C53.3396 47.808 53.3556 47.84 53.3556 47.904C53.3556 47.968 53.3396 48 53.3076 48C53.041 48 52.833 47.9947 52.6836 47.984L51.8196 47.968L50.9236 47.984C50.7743 47.9947 50.577 48 50.3316 48ZM61.8274 47.808C61.8594 47.808 61.8754 47.84 61.8754 47.904C61.8754 47.968 61.8594 48 61.8274 48C61.5607 48 61.3527 47.9947 61.2034 47.984L60.3394 47.968L59.4754 47.984C59.326 47.9947 59.1234 48 58.8674 48C58.8354 48 58.8194 47.968 58.8194 47.904C58.8194 47.84 58.8354 47.808 58.8674 47.808C59.1447 47.808 59.3474 47.7813 59.4754 47.728C59.614 47.664 59.7047 47.5573 59.7474 47.408C59.8007 47.248 59.8274 47.0133 59.8274 46.704V44.16C59.8274 43.5413 59.71 43.088 59.4754 42.8C59.2514 42.5013 58.8887 42.352 58.3874 42.352C58.078 42.352 57.758 42.432 57.4274 42.592C57.1074 42.752 56.814 42.976 56.5474 43.264V46.704C56.5474 47.0133 56.5687 47.248 56.6114 47.408C56.6647 47.5573 56.7607 47.664 56.8994 47.728C57.038 47.7813 57.246 47.808 57.5234 47.808C57.5554 47.808 57.5714 47.84 57.5714 47.904C57.5714 47.968 57.5554 48 57.5234 48C57.2567 48 57.0487 47.9947 56.8994 47.984L56.0354 47.968L55.1714 47.984C55.022 47.9947 54.8194 48 54.5634 48C54.5314 48 54.5154 47.968 54.5154 47.904C54.5154 47.84 54.5314 47.808 54.5634 47.808C54.8407 47.808 55.0434 47.7813 55.1714 47.728C55.31 47.664 55.4007 47.5573 55.4434 47.408C55.4967 47.248 55.5234 47.0133 55.5234 46.704V43.568C55.5234 43.216 55.4807 42.96 55.3954 42.8C55.31 42.64 55.1714 42.56 54.9794 42.56C54.8194 42.56 54.5367 42.64 54.1314 42.8H54.1154C54.0727 42.8 54.0407 42.7787 54.0194 42.736C53.998 42.6827 54.0087 42.6453 54.0514 42.624L55.9714 41.696L56.0674 41.68C56.174 41.68 56.2754 41.8027 56.3714 42.048C56.478 42.2827 56.5367 42.5973 56.5474 42.992C57.326 42.0747 58.142 41.616 58.9954 41.616C59.582 41.616 60.0354 41.7867 60.3554 42.128C60.686 42.4693 60.8514 42.9547 60.8514 43.584V46.704C60.8514 47.0133 60.8727 47.248 60.9154 47.408C60.9687 47.5573 61.0647 47.664 61.2034 47.728C61.342 47.7813 61.55 47.808 61.8274 47.808ZM69.9323 47.808C69.9536 47.808 69.9643 47.84 69.9643 47.904C69.9643 47.968 69.9536 48 69.9323 48C69.6656 48 69.4576 47.9947 69.3083 47.984L68.4443 47.968L67.2763 47.984C67.1056 47.9947 66.8709 48 66.5723 48C66.5509 48 66.5403 47.968 66.5403 47.904C66.5403 47.84 66.5509 47.808 66.5723 47.808C67.0843 47.808 67.3403 47.7013 67.3403 47.488C67.3403 47.392 67.2923 47.28 67.1963 47.152L65.2443 44.544L64.5403 45.104V46.704C64.5403 47.152 64.6043 47.4507 64.7323 47.6C64.8603 47.7387 65.1269 47.808 65.5323 47.808C65.5643 47.808 65.5803 47.84 65.5803 47.904C65.5803 47.968 65.5643 48 65.5323 48C65.2656 48 65.0576 47.9947 64.9083 47.984L64.0443 47.968L63.1483 47.984C62.9989 47.9947 62.8016 48 62.5563 48C62.5243 48 62.5083 47.968 62.5083 47.904C62.5083 47.84 62.5243 47.808 62.5563 47.808C62.9509 47.808 63.2123 47.7387 63.3403 47.6C63.4683 47.4507 63.5323 47.152 63.5323 46.704V38.464C63.5323 38.08 63.4949 37.8027 63.4203 37.632C63.3456 37.4613 63.2176 37.376 63.0363 37.376C62.8869 37.376 62.6523 37.4507 62.3323 37.6H62.3163C62.2736 37.6 62.2363 37.5733 62.2043 37.52C62.1829 37.4667 62.1936 37.4293 62.2363 37.408L64.3003 36.416L64.3803 36.4C64.4123 36.4 64.4443 36.416 64.4763 36.448C64.5189 36.48 64.5403 36.512 64.5403 36.544V44.832L66.5723 43.136C66.9029 42.8693 67.0683 42.6347 67.0683 42.432C67.0683 42.304 66.9936 42.2027 66.8443 42.128C66.7056 42.0533 66.4923 42.016 66.2043 42.016C66.1723 42.016 66.1562 41.984 66.1562 41.92C66.1562 41.856 66.1723 41.824 66.2043 41.824C66.5029 41.824 66.7269 41.8293 66.8763 41.84L68.0603 41.856L69.1483 41.84C69.2976 41.8293 69.4949 41.824 69.7403 41.824C69.7616 41.824 69.7723 41.856 69.7723 41.92C69.7723 41.984 69.7616 42.016 69.7403 42.016C69.3243 42.016 68.8656 42.1173 68.3643 42.32C67.8736 42.512 67.3883 42.8053 66.9083 43.2L66.0283 43.904L68.1083 46.704C68.6416 47.44 69.2496 47.808 69.9323 47.808Z" fill="black"/>
    <path d="M57.232 90.808C57.2747 90.8187 57.2907 90.856 57.28 90.92C57.28 90.9733 57.264 91 57.232 91H55.344C54.896 91 54.2027 90.6427 53.264 89.928C52.4213 90.7707 51.3547 91.192 50.064 91.192C49.392 91.192 48.8267 91.0853 48.368 90.872C47.9093 90.648 47.568 90.3547 47.344 89.992C47.1307 89.6293 47.024 89.24 47.024 88.824C47.024 88.2267 47.2107 87.704 47.584 87.256C47.968 86.808 48.512 86.328 49.216 85.816C49.024 85.528 48.8693 85.2613 48.752 85.016C48.4427 84.3653 48.288 83.784 48.288 83.272C48.288 82.792 48.4 82.3547 48.624 81.96C48.8587 81.5653 49.1787 81.2507 49.584 81.016C50 80.7813 50.48 80.664 51.024 80.664C51.5573 80.664 52.0107 80.792 52.384 81.048C52.7573 81.2933 52.944 81.6933 52.944 82.248C52.944 82.664 52.8373 83.0427 52.624 83.384C52.4107 83.7147 52.1493 84.008 51.84 84.264C51.5307 84.5093 51.1093 84.808 50.576 85.16L50.288 85.352C51.0773 86.568 52.2133 87.7467 53.696 88.888C54.0053 88.2907 54.16 87.6187 54.16 86.872C54.16 86.4453 54.0747 86.1307 53.904 85.928C53.744 85.7147 53.44 85.608 52.992 85.608C52.96 85.608 52.9387 85.576 52.928 85.512C52.928 85.448 52.9493 85.416 52.992 85.416L56.416 85.4C56.4587 85.4 56.48 85.432 56.48 85.496C56.48 85.56 56.4587 85.592 56.416 85.592C56.064 85.592 55.7973 85.6293 55.616 85.704C55.4453 85.768 55.3227 85.864 55.248 85.992C55.1733 86.12 55.0987 86.3173 55.024 86.584C54.736 87.5867 54.3787 88.4187 53.952 89.08C54.6027 89.5493 55.216 89.9333 55.792 90.232C56.368 90.5307 56.848 90.7227 57.232 90.808ZM49.312 82.472C49.312 83.304 49.5947 84.1893 50.16 85.128C50.704 84.7013 51.12 84.2907 51.408 83.896C51.7067 83.4907 51.856 83.032 51.856 82.52C51.856 82.0507 51.7333 81.6827 51.488 81.416C51.2427 81.1493 50.912 81.016 50.496 81.016C49.7067 81.016 49.312 81.5013 49.312 82.472ZM50.88 90.664C51.7227 90.664 52.448 90.36 53.056 89.752C52.9173 89.656 52.7947 89.56 52.688 89.464C52.048 88.952 51.4347 88.3973 50.848 87.8C50.272 87.2027 49.7813 86.6107 49.376 86.024C48.992 86.344 48.6933 86.68 48.48 87.032C48.2667 87.3733 48.16 87.7627 48.16 88.2C48.16 88.6373 48.272 89.048 48.496 89.432C48.7307 89.8053 49.056 90.104 49.472 90.328C49.888 90.552 50.3573 90.664 50.88 90.664Z" fill="black"/>
    <path d="M35.4 123.824C35.4 124.229 35.5013 124.587 35.704 124.896C35.9067 125.205 36.152 125.467 36.44 125.68C36.728 125.893 37.1333 126.155 37.656 126.464C38.2 126.795 38.6267 127.077 38.936 127.312C39.2453 127.547 39.5067 127.84 39.72 128.192C39.944 128.544 40.056 128.96 40.056 129.44C40.056 129.963 39.9227 130.432 39.656 130.848C39.4 131.264 39.0213 131.595 38.52 131.84C38.0187 132.075 37.4267 132.192 36.744 132.192C35.88 132.192 35.112 132 34.44 131.616C34.3867 131.584 34.3493 131.547 34.328 131.504C34.3067 131.461 34.2907 131.397 34.28 131.312L34.104 129.072C34.0933 129.029 34.1147 129.003 34.168 128.992C34.232 128.981 34.2693 128.997 34.28 129.04C34.4933 129.829 34.8293 130.507 35.288 131.072C35.7467 131.627 36.3547 131.904 37.112 131.904C37.6347 131.904 38.072 131.765 38.424 131.488C38.776 131.211 38.952 130.757 38.952 130.128C38.952 129.648 38.8453 129.237 38.632 128.896C38.4187 128.544 38.1573 128.251 37.848 128.016C37.5493 127.771 37.1387 127.493 36.616 127.184C36.0933 126.853 35.688 126.581 35.4 126.368C35.112 126.144 34.8667 125.867 34.664 125.536C34.4613 125.195 34.36 124.795 34.36 124.336C34.36 123.792 34.504 123.333 34.792 122.96C35.08 122.576 35.4587 122.293 35.928 122.112C36.3973 121.92 36.8933 121.824 37.416 121.824C38.0773 121.824 38.712 121.947 39.32 122.192C39.48 122.267 39.56 122.363 39.56 122.48L39.656 124.4C39.656 124.443 39.624 124.469 39.56 124.48C39.5067 124.491 39.4747 124.475 39.464 124.432C39.3573 123.867 39.1173 123.333 38.744 122.832C38.3707 122.331 37.832 122.08 37.128 122.08C36.5627 122.08 36.1307 122.245 35.832 122.576C35.544 122.907 35.4 123.323 35.4 123.824ZM48.6019 131.808C48.6339 131.808 48.6499 131.84 48.6499 131.904C48.6499 131.968 48.6339 132 48.6019 132C48.3352 132 48.1272 131.995 47.9779 131.984L47.1139 131.968L46.2179 131.984C46.0685 131.995 45.8712 132 45.6259 132C45.5939 132 45.5779 131.968 45.5779 131.904C45.5779 131.84 45.5939 131.808 45.6259 131.808C46.0205 131.808 46.2819 131.739 46.4099 131.6C46.5379 131.451 46.6019 131.152 46.6019 130.704V128.208C46.6019 127.579 46.4845 127.115 46.2499 126.816C46.0152 126.517 45.6525 126.368 45.1619 126.368C44.8419 126.368 44.5165 126.453 44.1859 126.624C43.8659 126.784 43.5725 127.008 43.3059 127.296V130.704C43.3059 131.152 43.3699 131.451 43.4979 131.6C43.6259 131.739 43.8925 131.808 44.2979 131.808C44.3299 131.808 44.3459 131.84 44.3459 131.904C44.3459 131.968 44.3299 132 44.2979 132C44.0312 132 43.8232 131.995 43.6739 131.984L42.8099 131.968L41.9139 131.984C41.7645 131.995 41.5672 132 41.3219 132C41.2899 132 41.2739 131.968 41.2739 131.904C41.2739 131.84 41.2899 131.808 41.3219 131.808C41.7165 131.808 41.9779 131.739 42.1059 131.6C42.2339 131.451 42.2979 131.152 42.2979 130.704V122.464C42.2979 122.08 42.2605 121.803 42.1859 121.632C42.1112 121.461 41.9832 121.376 41.8019 121.376C41.6525 121.376 41.4179 121.451 41.0979 121.6H41.0819C41.0392 121.6 41.0019 121.573 40.9699 121.52C40.9485 121.467 40.9592 121.429 41.0019 121.408L43.0979 120.4H43.1459C43.1885 120.4 43.2259 120.416 43.2579 120.448C43.2899 120.48 43.3059 120.512 43.3059 120.544V127.008C44.0845 126.101 44.9059 125.648 45.7699 125.648C46.3565 125.648 46.8099 125.819 47.1299 126.16C47.4499 126.501 47.6099 126.987 47.6099 127.616V130.704C47.6099 131.152 47.6739 131.451 47.8019 131.6C47.9299 131.739 48.1965 131.808 48.6019 131.808ZM55.5779 131.136C55.6205 131.136 55.6472 131.163 55.6579 131.216C55.6685 131.259 55.6525 131.291 55.6099 131.312L53.9619 132.096C53.9192 132.117 53.8712 132.128 53.8179 132.128C53.6792 132.128 53.5512 132.037 53.4339 131.856C53.3272 131.664 53.2525 131.408 53.2099 131.088L52.4099 131.616C52.1539 131.797 51.9192 131.925 51.7059 132C51.5032 132.075 51.2845 132.112 51.0499 132.112C50.6445 132.112 50.3299 132.011 50.1059 131.808C49.8819 131.595 49.7699 131.328 49.7699 131.008C49.7699 130.667 49.9032 130.384 50.1699 130.16C50.4472 129.925 50.8845 129.696 51.4819 129.472L53.1939 128.848V127.792C53.1939 127.152 53.1085 126.688 52.9379 126.4C52.7779 126.112 52.5379 125.968 52.2179 125.968C51.8659 125.968 51.5992 126.091 51.4179 126.336C51.2365 126.581 51.1192 126.859 51.0659 127.168C51.0019 127.637 50.7832 127.872 50.4099 127.872C50.2179 127.872 50.0739 127.824 49.9779 127.728C49.8819 127.632 49.8339 127.515 49.8339 127.376C49.8339 127.109 49.9992 126.843 50.3299 126.576C50.6712 126.309 51.0765 126.091 51.5459 125.92C52.0259 125.749 52.4472 125.664 52.8099 125.664C53.2472 125.664 53.5832 125.808 53.8179 126.096C54.0632 126.373 54.1859 126.779 54.1859 127.312V130.272C54.1859 130.635 54.2339 130.901 54.3299 131.072C54.4365 131.243 54.5965 131.328 54.8099 131.328C55.0019 131.328 55.2472 131.264 55.5459 131.136H55.5779ZM53.1939 130.848V130.752V129.072L51.8499 129.616C51.5619 129.723 51.3432 129.856 51.1939 130.016C51.0445 130.165 50.9699 130.357 50.9699 130.592C50.9699 130.848 51.0499 131.061 51.2099 131.232C51.3805 131.392 51.5939 131.472 51.8499 131.472C52.0632 131.472 52.3032 131.392 52.5699 131.232L53.1939 130.848ZM60.1046 125.68C60.3393 125.68 60.5633 125.749 60.7766 125.888C61.0006 126.027 61.1126 126.192 61.1126 126.384C61.1126 126.533 61.0593 126.661 60.9526 126.768C60.8566 126.864 60.7233 126.912 60.5526 126.912C60.446 126.912 60.3553 126.891 60.2806 126.848C60.206 126.805 60.1206 126.741 60.0246 126.656C59.918 126.571 59.822 126.507 59.7366 126.464C59.662 126.421 59.566 126.4 59.4486 126.4C59.31 126.4 59.166 126.453 59.0166 126.56C58.878 126.667 58.6486 126.901 58.3286 127.264V130.704C58.3286 131.013 58.366 131.248 58.4406 131.408C58.526 131.557 58.6753 131.664 58.8886 131.728C59.102 131.781 59.4273 131.808 59.8646 131.808C59.8966 131.808 59.9126 131.84 59.9126 131.904C59.9126 131.968 59.8966 132 59.8646 132C59.5126 132 59.23 131.995 59.0166 131.984L57.8166 131.968L56.9526 131.984C56.8033 131.995 56.6006 132 56.3446 132C56.3126 132 56.2966 131.968 56.2966 131.904C56.2966 131.84 56.3126 131.808 56.3446 131.808C56.622 131.808 56.8246 131.781 56.9526 131.728C57.0913 131.664 57.182 131.557 57.2246 131.408C57.278 131.248 57.3046 131.013 57.3046 130.704V127.568C57.3046 127.216 57.262 126.96 57.1766 126.8C57.0913 126.64 56.9526 126.56 56.7606 126.56C56.6006 126.56 56.318 126.64 55.9126 126.8H55.8966C55.854 126.8 55.822 126.779 55.8006 126.736C55.7793 126.683 55.79 126.645 55.8326 126.624L57.7526 125.696L57.8486 125.68C57.9553 125.68 58.0566 125.803 58.1526 126.048C58.2593 126.283 58.318 126.592 58.3286 126.976C58.766 126.475 59.1126 126.133 59.3686 125.952C59.6246 125.771 59.87 125.68 60.1046 125.68ZM67.1521 131.072C67.1841 131.072 67.2108 131.093 67.2321 131.136C67.2641 131.168 67.2695 131.2 67.2481 131.232C66.5335 131.872 65.7441 132.192 64.8801 132.192C64.2508 132.192 63.7121 132.053 63.2641 131.776C62.8161 131.488 62.4748 131.109 62.2401 130.64C62.0055 130.16 61.8881 129.648 61.8881 129.104C61.8881 128.475 62.0375 127.899 62.3361 127.376C62.6455 126.853 63.0615 126.443 63.5841 126.144C64.1068 125.835 64.6828 125.68 65.3121 125.68C65.9308 125.68 66.4001 125.84 66.7201 126.16C67.0508 126.469 67.2161 126.917 67.2161 127.504C67.2161 127.792 67.1521 127.936 67.0241 127.936L63.0721 127.952C63.0508 128.187 63.0401 128.368 63.0401 128.496C63.0401 129.424 63.2588 130.171 63.6961 130.736C64.1335 131.301 64.7521 131.584 65.5521 131.584C65.8721 131.584 66.1388 131.547 66.3521 131.472C66.5761 131.387 66.8375 131.253 67.1361 131.072H67.1521ZM64.7681 126C64.3201 126 63.9521 126.155 63.6641 126.464C63.3761 126.763 63.1895 127.184 63.1041 127.728L66.0161 127.664C66.0161 127.12 65.9041 126.709 65.6801 126.432C65.4668 126.144 65.1628 126 64.7681 126Z" fill="black"/>
</svg>
